<?xml version="1.0" encoding="utf-8"?>
<!-- Generator: Adobe Illustrator 25.0.0, SVG Export Plug-In . SVG Version: 6.00 Build 0)  -->
<svg version="1.1" id="Layer_1" xmlns="http://www.w3.org/2000/svg" xmlns:xlink="http://www.w3.org/1999/xlink" x="0px" y="0px"
	 viewBox="0 0 841.89 595.28" style="enable-background:new 0 0 841.89 595.28;" xml:space="preserve">
<style type="text/css">
	.st0{fill:#FFFFFF;stroke:#FFFFFF;stroke-width:3;stroke-miterlimit:10;}
	.st1{fill:#F1BE30;stroke:#F1BE30;stroke-width:3;stroke-miterlimit:10;}
</style>
<g>
	<polygon class="st0" points="650.59,575.07 650.73,575.03 566.93,305.37 518.45,320.43 600.04,582.97 599.96,583.21 602.1,590.09 
		655.26,590.09 	"/>
	<path class="st0" d="M510.36,529.11l-60.99-196.26l83.4-83.4l-35.9-35.9l-64.52,64.52L347.89,6.28h-2.2h-21.32h-4.57L143.07,575.03
		l0.14,0.04l-4.67,15.02h53.16l0.1-0.33l0.33,0.33l216.69-216.69l67.34,216.69l0.19-0.06l0.02,0.06h53.16l-18.95-60.98H510.36z
		 M223.66,486.77l110.19-354.59l57.94,186.46L223.66,486.77z"/>
</g>
<circle class="st1" cx="513.53" cy="232.84" r="25.22"/>
</svg>
